# xmcd
#
# Track frame offsets:
#	183
#	10690
#	26195
#	42093
#	53765
#	69645
#	92455
#	109858
#	129330
#	141663
#	153058
#	169988
#	182225
#	202565
#
# Disc length: 2876 seconds
#
# Revision: 2
# Processed by: cddbd v1.5.2PL0 Copyright (c) Steve Scherf et al.
# Submitted via: audiograbber 1.83.01
#
DISCID=b40b3a0e
DTITLE=Roy Forbes - The Human Kind
DYEAR=1992
DGENRE=Country
TTITLE0=Still a Fool
TTITLE1=Your Image of Me
TTITLE2=A Sweet Kind of Love
TTITLE3=Not Tonight
TTITLE4=Alone and Foresaken
TTITLE5=Let Me Make It Up to You Tonight
TTITLE6=The Human Kind
TTITLE7=Wondering
TTITLE8=The Winding Stream
TTITLE9=Saskatoon Moon
TTITLE10=Just One Time
TTITLE11=A Fool Such As I
TTITLE12=Days Turn to Night
TTITLE13=Anna Marie
EXTD=
EXTT0=
EXTT1=
EXTT2=
EXTT3=
EXTT4=
EXTT5=
EXTT6=
EXTT7=
EXTT8=
EXTT9=
EXTT10=
EXTT11=
EXTT12=
EXTT13=
PLAYORDER=
